<svg xmlns="http://www.w3.org/2000/svg" width="256" height="256" viewBox="0 0 256 256">
  <rect width="256" height="256" fill="rgb(128,128,255)"/>
  <g fill="rgb(132,128,255)">
    <rect x="0" y="0" width="256" height="2"/>
    <rect x="0" y="16" width="256" height="2"/>
    <rect x="0" y="32" width="256" height="2"/>
    <rect x="0" y="48" width="256" height="2"/>
    <rect x="0" y="64" width="256" height="2"/>
    <rect x="0" y="80" width="256" height="2"/>
    <rect x="0" y="96" width="256" height="2"/>
    <rect x="0" y="112" width="256" height="2"/>
    <rect x="0" y="128" width="256" height="2"/>
    <rect x="0" y="144" width="256" height="2"/>
    <rect x="0" y="160" width="256" height="2"/>
    <rect x="0" y="176" width="256" height="2"/>
    <rect x="0" y="192" width="256" height="2"/>
    <rect x="0" y="208" width="256" height="2"/>
    <rect x="0" y="224" width="256" height="2"/>
    <rect x="0" y="240" width="256" height="2"/>
  </g>
</svg>
