<svg xmlns="http://www.w3.org/2000/svg" width="256" height="256" viewBox="0 0 256 256">
  <rect width="256" height="256" fill="rgb(128,128,255)"/>
  <g fill="rgb(134,124,255)">
    <rect x="8" y="16" width="24" height="5"/>
    <rect x="44" y="30" width="20" height="5"/>
    <rect x="76" y="58" width="22" height="5"/>
    <rect x="120" y="46" width="24" height="5"/>
    <rect x="158" y="78" width="20" height="5"/>
    <rect x="186" y="102" width="22" height="5"/>
    <rect x="36" y="116" width="24" height="5"/>
    <rect x="72" y="148" width="20" height="5"/>
    <rect x="112" y="176" width="22" height="5"/>
    <rect x="170" y="196" width="24" height="5"/>
  </g>
  <g fill="rgb(122,132,255)">
    <rect x="24" y="42" width="18" height="4"/>
    <rect x="98" y="84" width="20" height="4"/>
    <rect x="146" y="124" width="18" height="4"/>
    <rect x="62" y="204" width="20" height="4"/>
  </g>
</svg>
