<?xml version='1.0' encoding='utf-8'?>
<svg xmlns="http://www.w3.org/2000/svg" viewBox="0 0 1350 1330" font-family="'Inter', 'PingFang SC', 'Microsoft YaHei', Arial, sans-serif">
  <defs>
    <marker id="aB" markerWidth="14" markerHeight="12" refX="12" refY="6" orient="auto"><path d="M0,0 L14,6 L0,12 Z" fill="#4F46E5" /></marker>
    <marker id="aP" markerWidth="14" markerHeight="12" refX="12" refY="6" orient="auto"><path d="M0,0 L14,6 L0,12 Z" fill="#7C3AED" /></marker>
    <marker id="aO" markerWidth="14" markerHeight="12" refX="12" refY="6" orient="auto"><path d="M0,0 L14,6 L0,12 Z" fill="#D97706" /></marker>
    <marker id="aG" markerWidth="14" markerHeight="12" refX="12" refY="6" orient="auto"><path d="M0,0 L14,6 L0,12 Z" fill="#64748B" /></marker>
    <filter id="sh" x="-1%" y="-1%" width="102%" height="106%"><feDropShadow dx="0" dy="2" stdDeviation="2" flood-opacity="0.08" /></filter>
  </defs>

  <rect width="1350" height="1330" fill="#FAFBFC" rx="4" />

  <!-- Title -->
  <text x="675" y="35" text-anchor="middle" font-size="22" font-weight="800" fill="#111827">Game Dev Studio 系统架构</text>
  <text x="675" y="58" text-anchor="middle" font-size="11" fill="#6B7280">多智能体游戏研发工作台 · 78 个 MCP 工具 · 5 个专业微服务</text>

  <!-- L1→L2 Arrows -->
  <line x1="440" y1="150" x2="440" y2="230" stroke="#4F46E5" stroke-width="4" marker-end="url(#aB)" />
  <line x1="850" y1="150" x2="850" y2="230" stroke="#4F46E5" stroke-width="4" marker-end="url(#aB)" />

  <!-- ====== Layer 1: Frontend (80-150) ====== -->
  <g transform="translate(30, 80)">
    <rect x="0" y="0" width="1240" height="70" rx="10" fill="#EEF2FF" stroke="#C7D2FE" stroke-width="2" />
    <rect x="20" y="-10" width="80" height="22" rx="6" fill="#4F46E5" />
    <text x="60" y="6" text-anchor="middle" font-size="11" font-weight="700" fill="#FFF">前端展示层</text>
    <rect x="25" y="22" width="130" height="36" rx="6" fill="#E0E7FF" stroke="#A5B4FC" stroke-width="1" filter="url(#sh)" /><text x="90" y="43" text-anchor="middle" font-size="10" font-weight="600" fill="#312E81">团队总览</text>
    <rect x="170" y="22" width="130" height="36" rx="6" fill="#E0E7FF" stroke="#A5B4FC" stroke-width="1" filter="url(#sh)" /><text x="235" y="43" text-anchor="middle" font-size="10" font-weight="600" fill="#312E81">指令中心</text>
    <rect x="315" y="22" width="130" height="36" rx="6" fill="#E0E7FF" stroke="#A5B4FC" stroke-width="1" filter="url(#sh)" /><text x="380" y="43" text-anchor="middle" font-size="10" font-weight="600" fill="#312E81">Studio 工作台</text>
    <rect x="460" y="22" width="130" height="36" rx="6" fill="#E0E7FF" stroke="#A5B4FC" stroke-width="1" filter="url(#sh)" /><text x="525" y="43" text-anchor="middle" font-size="10" font-weight="600" fill="#312E81">任务看板</text>
    <rect x="605" y="22" width="130" height="36" rx="6" fill="#E0E7FF" stroke="#A5B4FC" stroke-width="1" filter="url(#sh)" /><text x="670" y="43" text-anchor="middle" font-size="10" font-weight="600" fill="#312E81">任务交接</text>
    <rect x="750" y="22" width="130" height="36" rx="6" fill="#E0E7FF" stroke="#A5B4FC" stroke-width="1" filter="url(#sh)" /><text x="815" y="43" text-anchor="middle" font-size="10" font-weight="600" fill="#312E81">提案管理</text>
    <rect x="895" y="22" width="130" height="36" rx="6" fill="#E0E7FF" stroke="#A5B4FC" stroke-width="1" filter="url(#sh)" /><text x="960" y="43" text-anchor="middle" font-size="10" font-weight="600" fill="#312E81">游戏成品</text>
    <rect x="1040" y="22" width="170" height="36" rx="6" fill="#E0E7FF" stroke="#A5B4FC" stroke-width="1" filter="url(#sh)" /><text x="1125" y="43" text-anchor="middle" font-size="10" font-weight="600" fill="#312E81">运行观测</text>
  </g>

  <!-- L2→L3 Arrows -->
  <line x1="250" y1="570" x2="250" y2="640" stroke="#7C3AED" stroke-width="4" marker-end="url(#aP)" />
  <line x1="750" y1="570" x2="750" y2="640" stroke="#7C3AED" stroke-width="4" marker-end="url(#aP)" />
  <line x1="1060" y1="570" x2="1060" y2="640" stroke="#7C3AED" stroke-width="4" marker-end="url(#aP)" />

  <!-- ====== Layer 2: Backend (240-570) ====== -->
  <g transform="translate(30, 240)">
    <rect x="0" y="0" width="1240" height="330" rx="10" fill="#ECFDF5" stroke="#6EE7B7" stroke-width="2" />
    <rect x="20" y="-10" width="90" height="22" rx="6" fill="#059669" />
    <text x="65" y="6" text-anchor="middle" font-size="11" font-weight="700" fill="#FFF">后端业务层</text>

    <!-- Agent Orchestration -->
    <rect x="25" y="25" width="285" height="290" rx="8" fill="#D1FAE5" stroke="#34D399" stroke-width="2" />
    <rect x="25" y="25" width="285" height="28" rx="8" fill="#059669" />
    <text x="167" y="44" text-anchor="middle" font-size="12" font-weight="700" fill="#FFF">智能体编排</text>
    <text x="40" y="102" font-size="10" font-weight="700" fill="#047857">6 角色协作团队</text>
    <text x="40" y="120" font-size="9" fill="#065F46">研发工程师 · 架构师 · 游戏策划</text>
    <text x="40" y="136" font-size="9" fill="#065F46">商业策划 · CEO · 团队建设</text>
    <text x="40" y="160" font-size="10" font-weight="700" fill="#047857">核心能力</text>
    <text x="40" y="178" font-size="9" fill="#065F46">• 智能体生命周期管理</text>
    <text x="40" y="194" font-size="9" fill="#065F46">• SSE 实时流式输出</text>
    <text x="40" y="210" font-size="9" fill="#065F46">• 工具调用权限审批</text>
    <text x="40" y="226" font-size="9" fill="#065F46">• 长期记忆（按角色/项目）</text>
    <text x="40" y="250" font-size="10" font-weight="700" fill="#047857">任务交接链</text>
    <text x="40" y="268" font-size="9" fill="#065F46">策划 → CEO → 架构师 → 研发</text>

    <!-- Team Collaboration -->
    <rect x="330" y="25" width="285" height="290" rx="8" fill="#D1FAE5" stroke="#34D399" stroke-width="2" />
    <rect x="330" y="25" width="285" height="28" rx="8" fill="#059669" />
    <text x="472" y="44" text-anchor="middle" font-size="12" font-weight="700" fill="#FFF">团队协作</text>
    <text x="345" y="102" font-size="10" font-weight="700" fill="#047857">提案管理</text>
    <text x="345" y="120" font-size="9" fill="#065F46">• 创建/评审/决策 工作流</text>
    <text x="345" y="136" font-size="9" fill="#065F46">• 问卷式结构化策划案</text>
    <text x="345" y="152" font-size="9" fill="#065F46">• 附件管理与图表绑定</text>
    <text x="345" y="176" font-size="10" font-weight="700" fill="#047857">任务看板</text>
    <text x="345" y="194" font-size="9" fill="#065F46">• 开发与测试任务流转</text>
    <text x="345" y="210" font-size="9" fill="#065F46">• 状态追踪与可视化</text>
    <text x="345" y="234" font-size="10" font-weight="700" fill="#047857">任务交接</text>
    <text x="345" y="252" font-size="9" fill="#065F46">• 跨角色任务移交</text>
    <text x="345" y="268" font-size="9" fill="#065F46">• 自动交接开关</text>

    <!-- Game Production -->
    <rect x="635" y="25" width="285" height="290" rx="8" fill="#D1FAE5" stroke="#34D399" stroke-width="2" />
    <rect x="635" y="25" width="285" height="28" rx="8" fill="#059669" />
    <text x="777" y="44" text-anchor="middle" font-size="12" font-weight="700" fill="#FFF">游戏生产</text>
    <text x="650" y="102" font-size="10" font-weight="700" fill="#047857">游戏提交（文件模式）</text>
    <text x="650" y="120" font-size="9" fill="#065F46">• MCP 工具文件写入</text>
    <text x="650" y="136" font-size="9" fill="#065F46">• ZIP 打包上传 MinIO</text>
    <text x="650" y="160" font-size="10" font-weight="700" fill="#047857">代码质量流水线</text>
    <text x="650" y="178" font-size="9" fill="#065F46">• SonarQube 静态扫描</text>
    <text x="650" y="194" font-size="9" fill="#065F46">• 游戏工程规范检查</text>
    <text x="650" y="210" font-size="9" fill="#065F46">  20 条规则（8公共+6H5+6移动）</text>
    <text x="650" y="234" font-size="10" font-weight="700" fill="#047857">多媒体工具集</text>
    <text x="650" y="252" font-size="9" fill="#065F46">• Blender/Creator 三维建模</text>
    <text x="650" y="268" font-size="9" fill="#065F46">• ImageMagick + FFmpeg 15+ 操作</text>

    <!-- Infrastructure -->
    <rect x="940" y="25" width="275" height="290" rx="8" fill="#D1FAE5" stroke="#34D399" stroke-width="2" />
    <rect x="940" y="25" width="275" height="28" rx="8" fill="#059669" />
    <text x="1077" y="44" text-anchor="middle" font-size="12" font-weight="700" fill="#FFF">基础设施</text>
    <text x="955" y="75" font-size="10" font-weight="700" fill="#047857">Studio 集成</text>
    <text x="955" y="93" font-size="9" fill="#065F46">• Star-Office 状态同步</text>
    <text x="955" y="109" font-size="9" fill="#065F46">• Agent 注册与健康检查</text>
    <text x="955" y="133" font-size="10" font-weight="700" fill="#047857">文件存储</text>
    <text x="955" y="151" font-size="9" fill="#065F46">• MinIO 对象存储</text>
    <text x="955" y="167" font-size="9" fill="#065F46">• 安全路径解析</text>
    <text x="955" y="191" font-size="10" font-weight="700" fill="#047857">可观测性</text>
    <text x="955" y="209" font-size="9" fill="#065F46">• 日志流式采集</text>
    <text x="955" y="225" font-size="9" fill="#065F46">• SSE 事件广播</text>
    <text x="955" y="241" font-size="9" fill="#065F46">• OpenTelemetry 追踪</text>
    <rect x="955" y="262" width="240" height="38" rx="6" fill="#A7F3D0" stroke="#34D399" stroke-width="1" />
    <text x="1075" y="280" text-anchor="middle" font-size="9" font-weight="700" fill="#047857">架构亮点：项目级数据隔离</text>
    <text x="1075" y="293" text-anchor="middle" font-size="8" fill="#065F46">所有业务数据按 project_id 隔离</text>
  </g>

  <!-- L3→L4 Arrows -->
  <line x1="160" y1="770" x2="160" y2="840" stroke="#D97706" stroke-width="4" marker-end="url(#aO)" />
  <line x1="540" y1="770" x2="540" y2="840" stroke="#64748B" stroke-width="4" marker-end="url(#aG)" />
  <line x1="920" y1="770" x2="920" y2="840" stroke="#64748B" stroke-width="4" marker-end="url(#aG)" />

  <!-- ====== Layer 3: Microservices (650-770) ====== -->
  <g transform="translate(30, 650)">
    <rect x="0" y="0" width="1240" height="120" rx="10" fill="#FAF5FF" stroke="#DDD6FE" stroke-width="2" />
    <rect x="20" y="-10" width="80" height="22" rx="6" fill="#7C3AED" />
    <text x="60" y="6" text-anchor="middle" font-size="11" font-weight="700" fill="#FFF">微服务层</text>

    <!-- Creator -->
    <rect x="25" y="25" width="220" height="80" rx="8" fill="#EDE9FE" stroke="#A78BFA" stroke-width="2" filter="url(#sh)" />
    <rect x="25" y="25" width="220" height="26" rx="8" fill="#7C3AED" /><text x="135" y="42" text-anchor="middle" font-size="11" font-weight="700" fill="#FFF">Creator 服务</text>
    <text x="135" y="67" text-anchor="middle" font-size="9" fill="#6D28D9">Blender 三维引擎</text>
    <text x="135" y="85" text-anchor="middle" font-size="8" fill="#8B5CF6">建模 · 材质 · 场景 · 安全防护</text>
    <text x="135" y="99" text-anchor="middle" font-size="8" fill="#8B5CF6">端口 8080</text>

    <!-- Image -->
    <rect x="265" y="25" width="220" height="80" rx="8" fill="#EDE9FE" stroke="#A78BFA" stroke-width="2" filter="url(#sh)" />
    <rect x="265" y="25" width="220" height="26" rx="8" fill="#7C3AED" /><text x="375" y="42" text-anchor="middle" font-size="11" font-weight="700" fill="#FFF">Image 服务</text>
    <text x="375" y="67" text-anchor="middle" font-size="9" fill="#6D28D9">ImageMagick 图片处理</text>
    <text x="375" y="85" text-anchor="middle" font-size="8" fill="#8B5CF6">裁剪 · 缩放 · 水印 · 12 操作</text>
    <text x="375" y="99" text-anchor="middle" font-size="8" fill="#8B5CF6">端口 8089</text>

    <!-- Video (NEW) -->
    <rect x="505" y="25" width="220" height="80" rx="8" fill="#EDE9FE" stroke="#A78BFA" stroke-width="2" filter="url(#sh)" />
    <rect x="505" y="25" width="220" height="26" rx="8" fill="#7C3AED" /><text x="615" y="42" text-anchor="middle" font-size="11" font-weight="700" fill="#FFF">Video 服务</text>
    <text x="615" y="67" text-anchor="middle" font-size="9" fill="#6D28D9">FFmpeg 视频处理</text>
    <text x="615" y="85" text-anchor="middle" font-size="8" fill="#8B5CF6">转码 · 剪辑 · 文字 · GIF · 17 操作</text>
    <text x="615" y="99" text-anchor="middle" font-size="8" fill="#8B5CF6">端口 8084</text>

    <!-- Draw.io -->
    <rect x="745" y="25" width="220" height="80" rx="8" fill="#EDE9FE" stroke="#A78BFA" stroke-width="2" filter="url(#sh)" />
    <rect x="745" y="25" width="220" height="26" rx="8" fill="#7C3AED" /><text x="855" y="42" text-anchor="middle" font-size="11" font-weight="700" fill="#FFF">Draw.io 服务</text>
    <text x="855" y="67" text-anchor="middle" font-size="9" fill="#6D28D9">图表服务</text>
    <text x="855" y="85" text-anchor="middle" font-size="8" fill="#8B5CF6">CRUD · 导出 PNG/SVG</text>
    <text x="855" y="99" text-anchor="middle" font-size="8" fill="#8B5CF6">端口 8082</text>

    <!-- Scanner -->
    <rect x="985" y="25" width="220" height="80" rx="8" fill="#EDE9FE" stroke="#A78BFA" stroke-width="2" filter="url(#sh)" />
    <rect x="985" y="25" width="220" height="26" rx="8" fill="#7C3AED" /><text x="1095" y="42" text-anchor="middle" font-size="11" font-weight="700" fill="#FFF">Scanner 服务</text>
    <text x="1095" y="67" text-anchor="middle" font-size="9" fill="#6D28D9">SonarQube 扫描服务</text>
    <text x="1095" y="85" text-anchor="middle" font-size="8" fill="#8B5CF6">ZIP 扫描 · 问题报告 · 缓存去重</text>
    <text x="1095" y="99" text-anchor="middle" font-size="8" fill="#8B5CF6">端口 8081</text>
  </g>

  <!-- ====== Layer 4: Data + External (850-1170) ====== -->
  <g transform="translate(30, 850)">
    <!-- Data Layer -->
    <rect x="0" y="0" width="350" height="310" rx="10" fill="#FEFCE8" stroke="#FDE68A" stroke-width="2" />
    <rect x="20" y="-10" width="70" height="22" rx="6" fill="#D97706" />
    <text x="55" y="6" text-anchor="middle" font-size="11" font-weight="700" fill="#FFF">数据层</text>

    <rect x="25" y="30" width="300" height="80" rx="8" fill="#FEF9C3" stroke="#FDE68A" stroke-width="2" filter="url(#sh)" />
    <text x="175" y="50" text-anchor="middle" font-size="14" font-weight="700" fill="#92400E">SQLite</text>
    <text x="175" y="70" text-anchor="middle" font-size="10" fill="#A16207">嵌入式关系数据库</text>
    <text x="175" y="90" text-anchor="middle" font-size="9" fill="#D97706">项目级数据隔离</text>

    <rect x="25" y="125" width="300" height="80" rx="8" fill="#FEF9C3" stroke="#FDE68A" stroke-width="2" filter="url(#sh)" />
    <text x="175" y="141" text-anchor="middle" font-size="12" font-weight="700" fill="#92400E">文件存储</text>
    <text x="175" y="159" text-anchor="middle" font-size="9" fill="#A16207">output/ 目录</text>
    <text x="175" y="175" text-anchor="middle" font-size="9" fill="#A16207">MinIO 对象存储</text>

    <rect x="25" y="220" width="300" height="80" rx="8" fill="#FEF9C3" stroke="#FDE68A" stroke-width="2" filter="url(#sh)" />
    <text x="175" y="238" text-anchor="middle" font-size="12" font-weight="700" fill="#92400E">持久化特性</text>
    <text x="175" y="256" text-anchor="middle" font-size="9" fill="#A16207">17 张核心业务表</text>
    <text x="175" y="272" text-anchor="middle" font-size="9" fill="#A16207">含 image/video/drawio 项目表</text>

    <!-- External Services -->
    <rect x="380" y="0" width="830" height="310" rx="10" fill="#F8FAFC" stroke="#E2E8F0" stroke-width="2" />
    <rect x="400" y="-10" width="90" height="22" rx="6" fill="#475569" />
    <text x="445" y="6" text-anchor="middle" font-size="11" font-weight="700" fill="#FFF">外部服务</text>

    <rect x="390" y="25" width="148" height="255" rx="8" fill="#F1F5F9" stroke="#D1D5DB" stroke-width="2" filter="url(#sh)" />
    <text x="464" y="50" text-anchor="middle" font-size="14" font-weight="700" fill="#1E293B">MinIO</text>
    <line x1="404" y1="73" x2="538" y2="73" stroke="#E2E8F0" stroke-width="0.5" />
    <text x="464" y="124" text-anchor="middle" font-size="10" fill="#64748B">对象存储</text>
    <text x="464" y="149" text-anchor="middle" font-size="8" fill="#94A3B8">• 游戏文件存储</text>
    <text x="464" y="167" text-anchor="middle" font-size="8" fill="#94A3B8">• 附件管理</text>
    <text x="464" y="185" text-anchor="middle" font-size="8" fill="#94A3B8">• 扫描报告归档</text>
    <text x="464" y="203" text-anchor="middle" font-size="8" fill="#94A3B8">• 预签名下载链接</text>
    <text x="464" y="221" text-anchor="middle" font-size="8" fill="#94A3B8">• 视频文件存储</text>

    <rect x="548" y="25" width="148" height="255" rx="8" fill="#F1F5F9" stroke="#D1D5DB" stroke-width="2" filter="url(#sh)" />
    <text x="622" y="50" text-anchor="middle" font-size="14" font-weight="700" fill="#1E293B">SonarQube</text>
    <line x1="562" y1="73" x2="696" y2="73" stroke="#E2E8F0" stroke-width="0.5" />
    <text x="622" y="124" text-anchor="middle" font-size="10" fill="#64748B">代码质量平台</text>
    <text x="622" y="149" text-anchor="middle" font-size="8" fill="#94A3B8">• 静态代码扫描</text>
    <text x="622" y="167" text-anchor="middle" font-size="8" fill="#94A3B8">• Bug 与安全漏洞检测</text>
    <text x="622" y="185" text-anchor="middle" font-size="8" fill="#94A3B8">• 代码异味分析</text>
    <text x="622" y="203" text-anchor="middle" font-size="8" fill="#94A3B8">• 质量门禁控制</text>

    <rect x="706" y="25" width="148" height="255" rx="8" fill="#F1F5F9" stroke="#D1D5DB" stroke-width="2" filter="url(#sh)" />
    <text x="780" y="50" text-anchor="middle" font-size="14" font-weight="700" fill="#1E293B">Star-Office</text>
    <line x1="720" y1="73" x2="854" y2="73" stroke="#E2E8F0" stroke-width="0.5" />
    <text x="780" y="124" text-anchor="middle" font-size="10" fill="#64748B">Agent 工作空间</text>
    <text x="780" y="149" text-anchor="middle" font-size="8" fill="#94A3B8">• 多 Agent 状态同步</text>
    <text x="780" y="167" text-anchor="middle" font-size="8" fill="#94A3B8">• 实时协作画布</text>
    <text x="780" y="185" text-anchor="middle" font-size="8" fill="#94A3B8">• 任务可视化管理</text>
    <text x="780" y="203" text-anchor="middle" font-size="8" fill="#94A3B8">• 跨项目隔离</text>

    <rect x="864" y="25" width="148" height="255" rx="8" fill="#F1F5F9" stroke="#D1D5DB" stroke-width="2" filter="url(#sh)" />
    <text x="938" y="50" text-anchor="middle" font-size="14" font-weight="700" fill="#1E293B">Jaeger</text>
    <line x1="878" y1="73" x2="1012" y2="73" stroke="#E2E8F0" stroke-width="0.5" />
    <text x="938" y="124" text-anchor="middle" font-size="10" fill="#64748B">分布式追踪</text>
    <text x="938" y="149" text-anchor="middle" font-size="8" fill="#94A3B8">• 跨服务调用链路</text>
    <text x="938" y="167" text-anchor="middle" font-size="8" fill="#94A3B8">• 性能瓶颈分析</text>
    <text x="938" y="185" text-anchor="middle" font-size="8" fill="#94A3B8">• 错误根因定位</text>
    <text x="938" y="203" text-anchor="middle" font-size="8" fill="#94A3B8">• 可视化追踪界面</text>

    <rect x="1022" y="25" width="158" height="255" rx="8" fill="#F1F5F9" stroke="#D1D5DB" stroke-width="2" filter="url(#sh)" />
    <text x="1101" y="50" text-anchor="middle" font-size="14" font-weight="700" fill="#1E293B">Draw.io</text>
    <line x1="1036" y1="73" x2="1180" y2="73" stroke="#E2E8F0" stroke-width="0.5" />
    <text x="1101" y="124" text-anchor="middle" font-size="10" fill="#64748B">图表导出</text>
    <text x="1101" y="149" text-anchor="middle" font-size="8" fill="#94A3B8">• 架构图设计</text>
    <text x="1101" y="167" text-anchor="middle" font-size="8" fill="#94A3B8">• 游戏流程图绘制</text>
    <text x="1101" y="185" text-anchor="middle" font-size="8" fill="#94A3B8">• PNG/SVG 导出</text>
    <text x="1101" y="203" text-anchor="middle" font-size="8" fill="#94A3B8">• 提案附件绑定</text>
  </g>
</svg>