<svg xmlns="http://www.w3.org/2000/svg" viewBox="0 0 1200 1100" font-family="'Inter', 'PingFang SC', 'Microsoft YaHei', Arial, sans-serif">
  <defs>
    <marker id="aB" markerWidth="14" markerHeight="12" refX="12" refY="6" orient="auto"><path d="M0,0 L14,6 L0,12 Z" fill="#4F46E5"/></marker>
    <marker id="aP" markerWidth="14" markerHeight="12" refX="12" refY="6" orient="auto"><path d="M0,0 L14,6 L0,12 Z" fill="#7C3AED"/></marker>
    <marker id="aO" markerWidth="14" markerHeight="12" refX="12" refY="6" orient="auto"><path d="M0,0 L14,6 L0,12 Z" fill="#D97706"/></marker>
    <marker id="aG" markerWidth="14" markerHeight="12" refX="12" refY="6" orient="auto"><path d="M0,0 L14,6 L0,12 Z" fill="#64748B"/></marker>
    <filter id="sh" x="-1%" y="-1%" width="102%" height="106%"><feDropShadow dx="0" dy="2" stdDeviation="2" flood-opacity="0.08"/></filter>
  </defs>

  <rect width="1200" height="1100" fill="#FAFBFC" rx="4"/>

  <text x="600" y="35" text-anchor="middle" font-size="22" font-weight="800" fill="#111827">Game Dev Studio 系统架构</text>
  <text x="600" y="58" text-anchor="middle" font-size="11" fill="#6B7280">多智能体游戏研发工作台 · 功能模块 · 业务逻辑 · 技术架构</text>

  <!-- L1→L2: 2 arrows (gap: 65px) -->
  <line x1="410" y1="155" x2="410" y2="215" stroke="#4F46E5" stroke-width="4" marker-end="url(#aB)"/>
  <line x1="790" y1="155" x2="790" y2="215" stroke="#4F46E5" stroke-width="4" marker-end="url(#aB)"/>

  <!-- ===== L1: 前端展示层 (85→155) ===== -->
  <g transform="translate(30, 85)">
    <rect x="0" y="0" width="1140" height="70" rx="10" fill="#EEF2FF" stroke="#C7D2FE" stroke-width="2"/>
    <rect x="20" y="-10" width="80" height="22" rx="6" fill="#4F46E5"/>
    <text x="60" y="6" text-anchor="middle" font-size="11" font-weight="700" fill="#FFF">前端展示层</text>
    <text x="115" y="6" font-size="10" fill="#3730A3"></text>
    <rect x="25" y="22" width="120" height="36" rx="6" fill="#E0E7FF" stroke="#A5B4FC" stroke-width="1" filter="url(#sh)"/><text x="85" y="43" text-anchor="middle" font-size="10" font-weight="600" fill="#312E81">团队总览</text>
    <rect x="160" y="22" width="120" height="36" rx="6" fill="#E0E7FF" stroke="#A5B4FC" stroke-width="1" filter="url(#sh)"/><text x="220" y="43" text-anchor="middle" font-size="10" font-weight="600" fill="#312E81">指令中心</text>
    <rect x="295" y="22" width="120" height="36" rx="6" fill="#E0E7FF" stroke="#A5B4FC" stroke-width="1" filter="url(#sh)"/><text x="355" y="43" text-anchor="middle" font-size="10" font-weight="600" fill="#312E81">Studio 工作台</text>
    <rect x="430" y="22" width="120" height="36" rx="6" fill="#E0E7FF" stroke="#A5B4FC" stroke-width="1" filter="url(#sh)"/><text x="490" y="43" text-anchor="middle" font-size="10" font-weight="600" fill="#312E81">任务看板</text>
    <rect x="565" y="22" width="120" height="36" rx="6" fill="#E0E7FF" stroke="#A5B4FC" stroke-width="1" filter="url(#sh)"/><text x="625" y="43" text-anchor="middle" font-size="10" font-weight="600" fill="#312E81">任务交接</text>
    <rect x="700" y="22" width="120" height="36" rx="6" fill="#E0E7FF" stroke="#A5B4FC" stroke-width="1" filter="url(#sh)"/><text x="760" y="43" text-anchor="middle" font-size="10" font-weight="600" fill="#312E81">提案管理</text>
    <rect x="835" y="22" width="120" height="36" rx="6" fill="#E0E7FF" stroke="#A5B4FC" stroke-width="1" filter="url(#sh)"/><text x="895" y="43" text-anchor="middle" font-size="10" font-weight="600" fill="#312E81">游戏成品</text>
    <rect x="970" y="22" width="140" height="36" rx="6" fill="#E0E7FF" stroke="#A5B4FC" stroke-width="1" filter="url(#sh)"/><text x="1040" y="43" text-anchor="middle" font-size="10" font-weight="600" fill="#312E81">运行观测</text>
  </g>

  <!-- L2→L3: 2 arrows (gap: 65px) -->
  <line x1="410" y1="545" x2="410" y2="605" stroke="#7C3AED" stroke-width="4" marker-end="url(#aP)"/>
  <line x1="790" y1="545" x2="790" y2="605" stroke="#7C3AED" stroke-width="4" marker-end="url(#aP)"/>

  <!-- ===== L2: 后端业务层 (220→540) ===== -->
  <g transform="translate(30, 220)">
    <rect x="0" y="0" width="1140" height="320" rx="10" fill="#ECFDF5" stroke="#6EE7B7" stroke-width="2"/>
    <rect x="20" y="-10" width="90" height="22" rx="6" fill="#059669"/>
    <text x="65" y="6" text-anchor="middle" font-size="11" font-weight="700" fill="#FFF">后端业务层</text>
    <text x="125" y="6" font-size="10" fill="#047857"></text>

    <!-- 智能体编排 -->
    <rect x="25" y="25" width="265" height="280" rx="8" fill="#D1FAE5" stroke="#34D399" stroke-width="2"/>
    <rect x="25" y="25" width="265" height="28" rx="8" fill="#059669"/>
    <text x="157" y="44" text-anchor="middle" font-size="12" font-weight="700" fill="#FFF">智能体编排</text>
    <text x="40" y="70" font-size="10" font-weight="700" fill="#047857">6 角色协作团队</text>
    <text x="40" y="88" font-size="9" fill="#065F46">研发工程师 · 架构师 · 游戏策划</text>
    <text x="40" y="104" font-size="9" fill="#065F46">商业策划 · CEO · 团队建设</text>
    <text x="40" y="128" font-size="10" font-weight="700" fill="#047857">核心能力</text>
    <text x="40" y="146" font-size="9" fill="#065F46">• 智能体生命周期管理</text>
    <text x="40" y="162" font-size="9" fill="#065F46">• SSE 实时流式输出</text>
    <text x="40" y="178" font-size="9" fill="#065F46">• 工具调用权限审批</text>
    <text x="40" y="194" font-size="9" fill="#065F46">• 长期记忆（按角色/项目）</text>
    <text x="40" y="218" font-size="10" font-weight="700" fill="#047857">任务交接链</text>
    <text x="40" y="236" font-size="9" fill="#065F46">策划 → CEO → 架构师 → 研发</text>

    <!-- 团队协作 -->
    <rect x="310" y="25" width="265" height="280" rx="8" fill="#D1FAE5" stroke="#34D399" stroke-width="2"/>
    <rect x="310" y="25" width="265" height="28" rx="8" fill="#059669"/>
    <text x="442" y="44" text-anchor="middle" font-size="12" font-weight="700" fill="#FFF">团队协作</text>
    <text x="325" y="70" font-size="10" font-weight="700" fill="#047857">提案管理</text>
    <text x="325" y="88" font-size="9" fill="#065F46">• 创建/评审/决策 工作流</text>
    <text x="325" y="104" font-size="9" fill="#065F46">• 问卷式结构化策划案</text>
    <text x="325" y="120" font-size="9" fill="#065F46">• 附件管理与图表绑定</text>
    <text x="325" y="144" font-size="10" font-weight="700" fill="#047857">任务看板</text>
    <text x="325" y="162" font-size="9" fill="#065F46">• 开发与测试任务流转</text>
    <text x="325" y="178" font-size="9" fill="#065F46">• 状态追踪与可视化</text>
    <text x="325" y="202" font-size="10" font-weight="700" fill="#047857">任务交接</text>
    <text x="325" y="220" font-size="9" fill="#065F46">• 跨角色任务移交</text>
    <text x="325" y="236" font-size="9" fill="#065F46">• 自动交接开关</text>

    <!-- 游戏生产 -->
    <rect x="595" y="25" width="265" height="280" rx="8" fill="#D1FAE5" stroke="#34D399" stroke-width="2"/>
    <rect x="595" y="25" width="265" height="28" rx="8" fill="#059669"/>
    <text x="727" y="44" text-anchor="middle" font-size="12" font-weight="700" fill="#FFF">游戏生产</text>
    <text x="610" y="70" font-size="10" font-weight="700" fill="#047857">游戏提交（双模式）</text>
    <text x="610" y="88" font-size="9" fill="#065F46">• HTML 内容模式</text>
    <text x="610" y="104" font-size="9" fill="#065F46">• ZIP 打包上传 MinIO</text>
    <text x="610" y="128" font-size="10" font-weight="700" fill="#047857">代码质量流水线</text>
    <text x="610" y="146" font-size="9" fill="#065F46">• SonarQube 静态扫描</text>
    <text x="610" y="162" font-size="9" fill="#065F46">• 游戏工程规范检查</text>
    <text x="610" y="178" font-size="9" fill="#065F46">  20 条规则（8 公共 + 6 H5 + 6 移动）</text>
    <text x="610" y="202" font-size="10" font-weight="700" fill="#047857">游戏工程框架</text>
    <text x="610" y="220" font-size="9" fill="#065F46">• 类型注册与规范定义</text>
    <text x="610" y="236" font-size="9" fill="#065F46">• MCP 工具查询接口</text>

    <!-- 基础设施 -->
    <rect x="880" y="25" width="260" height="280" rx="8" fill="#D1FAE5" stroke="#34D399" stroke-width="2"/>
    <rect x="880" y="25" width="270" height="28" rx="8" fill="#059669"/>
    <text x="1015" y="44" text-anchor="middle" font-size="12" font-weight="700" fill="#FFF">基础设施</text>
    <text x="895" y="70" font-size="10" font-weight="700" fill="#047857">Studio 集成</text>
    <text x="895" y="88" font-size="9" fill="#065F46">• Star-Office 状态同步</text>
    <text x="895" y="104" font-size="9" fill="#065F46">• Agent 注册与健康检查</text>
    <text x="895" y="128" font-size="10" font-weight="700" fill="#047857">文件存储</text>
    <text x="895" y="146" font-size="9" fill="#065F46">• MinIO 对象存储</text>
    <text x="895" y="162" font-size="9" fill="#065F46">• 安全路径解析</text>
    <text x="895" y="186" font-size="10" font-weight="700" fill="#047857">可观测性</text>
    <text x="895" y="204" font-size="9" fill="#065F46">• 日志流式采集</text>
    <text x="895" y="220" font-size="9" fill="#065F46">• SSE 事件广播</text>
    <text x="895" y="236" font-size="9" fill="#065F46">• OpenTelemetry 追踪</text>
    <rect x="895" y="255" width="230" height="38" rx="6" fill="#A7F3D0" stroke="#34D399" stroke-width="1"/>
    <text x="1015" y="275" text-anchor="middle" font-size="9" font-weight="700" fill="#047857">架构亮点：项目级数据隔离</text>
    <text x="1015" y="290" text-anchor="middle" font-size="8" fill="#065F46">所有业务数据按 project_id 隔离</text>
  </g>

  <!-- L3→Data: 1 arrow | L3→External: 2 arrows (gap: 65px) -->
  <line x1="205" y1="735" x2="205" y2="795" stroke="#D97706" stroke-width="4" marker-end="url(#aO)"/>
  <line x1="673" y1="735" x2="673" y2="795" stroke="#64748B" stroke-width="4" marker-end="url(#aG)"/>
  <line x1="937" y1="735" x2="937" y2="795" stroke="#64748B" stroke-width="4" marker-end="url(#aG)"/>

  <!-- ===== L3: 微服务层 (610→730) ===== -->
  <g transform="translate(30, 610)">
    <rect x="0" y="0" width="1140" height="120" rx="10" fill="#FAF5FF" stroke="#DDD6FE" stroke-width="2"/>
    <rect x="20" y="-10" width="80" height="22" rx="6" fill="#7C3AED"/>
    <text x="60" y="6" text-anchor="middle" font-size="11" font-weight="700" fill="#FFF">微服务层</text>

    <rect x="25" y="25" width="260" height="80" rx="8" fill="#EDE9FE" stroke="#A78BFA" stroke-width="2" filter="url(#sh)"/>
    <rect x="25" y="25" width="260" height="26" rx="8" fill="#7C3AED"/>
    <text x="155" y="42" text-anchor="middle" font-size="11" font-weight="700" fill="#FFF">Creator 服务</text>
    <text x="155" y="60" text-anchor="middle" font-size="9" fill="#6D28D9">Blender 三维引擎</text>
    <text x="155" y="78" text-anchor="middle" font-size="8" fill="#8B5CF6">建模 · 材质 · 场景 · 导出</text>
    <text x="155" y="92" text-anchor="middle" font-size="8" fill="#8B5CF6">安全路径防护</text>

    <rect x="305" y="25" width="260" height="80" rx="8" fill="#EDE9FE" stroke="#A78BFA" stroke-width="2" filter="url(#sh)"/>
    <rect x="305" y="25" width="260" height="26" rx="8" fill="#7C3AED"/>
    <text x="435" y="42" text-anchor="middle" font-size="11" font-weight="700" fill="#FFF">Image 服务</text>
    <text x="435" y="60" text-anchor="middle" font-size="9" fill="#6D28D9">ImageMagick 图片处理</text>
    <text x="435" y="78" text-anchor="middle" font-size="8" fill="#8B5CF6">裁剪 · 缩放 · 水印 · 批量处理</text>
    <text x="435" y="92" text-anchor="middle" font-size="8" fill="#8B5CF6">雪碧图生成</text>

    <rect x="585" y="25" width="260" height="80" rx="8" fill="#EDE9FE" stroke="#A78BFA" stroke-width="2" filter="url(#sh)"/>
    <rect x="585" y="25" width="260" height="26" rx="8" fill="#7C3AED"/>
    <text x="715" y="42" text-anchor="middle" font-size="11" font-weight="700" fill="#FFF">Draw.io 服务</text>
    <text x="715" y="60" text-anchor="middle" font-size="9" fill="#6D28D9">图表服务</text>
    <text x="715" y="78" text-anchor="middle" font-size="8" fill="#8B5CF6">图表 CRUD · 导出 PNG/SVG</text>
    <text x="715" y="92" text-anchor="middle" font-size="8" fill="#8B5CF6">→ 导出服务</text>

    <rect x="865" y="25" width="260" height="80" rx="8" fill="#EDE9FE" stroke="#A78BFA" stroke-width="2" filter="url(#sh)"/>
    <rect x="865" y="25" width="260" height="26" rx="8" fill="#7C3AED"/>
    <text x="995" y="42" text-anchor="middle" font-size="11" font-weight="700" fill="#FFF">Scanner 服务</text>
    <text x="995" y="60" text-anchor="middle" font-size="9" fill="#6D28D9">SonarQube 扫描服务</text>
    <text x="995" y="78" text-anchor="middle" font-size="8" fill="#8B5CF6">ZIP 扫描 · 问题报告</text>
    <text x="995" y="92" text-anchor="middle" font-size="8" fill="#8B5CF6">缓存去重</text>
  </g>

  <!-- ===== L4: 数据层 + 外部服务 (800→1070) ===== -->
  <g transform="translate(30, 800)">
    <!-- 数据层 -->
    <rect x="0" y="0" width="350" height="270" rx="10" fill="#FEFCE8" stroke="#FDE68A" stroke-width="2"/>
    <rect x="20" y="-10" width="70" height="22" rx="6" fill="#D97706"/>
    <text x="55" y="6" text-anchor="middle" font-size="11" font-weight="700" fill="#FFF">数据层</text>

    <rect x="25" y="25" width="300" height="80" rx="8" fill="#FEF9C3" stroke="#FDE68A" stroke-width="2" filter="url(#sh)"/>
    <text x="175" y="50" text-anchor="middle" font-size="14" font-weight="700" fill="#92400E">SQLite</text>
    <text x="175" y="70" text-anchor="middle" font-size="10" fill="#A16207">嵌入式关系数据库</text>
    <text x="175" y="90" text-anchor="middle" font-size="9" fill="#D97706">项目级数据隔离</text>

    <rect x="25" y="115" width="300" height="60" rx="8" fill="#FEF9C3" stroke="#FDE68A" stroke-width="2" filter="url(#sh)"/>
    <text x="175" y="140" text-anchor="middle" font-size="12" font-weight="700" fill="#92400E">文件存储</text>
    <text x="175" y="158" text-anchor="middle" font-size="9" fill="#A16207">output/ 目录</text>
    <text x="175" y="172" text-anchor="middle" font-size="9" fill="#A16207">MinIO 对象存储</text>

    <rect x="25" y="185" width="300" height="70" rx="8" fill="#FEF9C3" stroke="#FDE68A" stroke-width="2" filter="url(#sh)"/>
    <text x="175" y="210" text-anchor="middle" font-size="12" font-weight="700" fill="#92400E">持久化特性</text>
    <text x="175" y="228" text-anchor="middle" font-size="9" fill="#A16207">17 张核心业务表</text>
    <text x="175" y="244" text-anchor="middle" font-size="9" fill="#A16207">DDL 优先初始化 · 向后兼容</text>

    <!-- 外部服务：5个等宽大框填满 -->
    <rect x="380" y="0" width="760" height="270" rx="10" fill="#F8FAFC" stroke="#E2E8F0" stroke-width="2"/>
    <rect x="400" y="-10" width="90" height="22" rx="6" fill="#475569"/>
    <text x="445" y="6" text-anchor="middle" font-size="11" font-weight="700" fill="#FFF">外部服务</text>

    <!-- 5 boxes: 146px each, 10px gap, start x=400 -->
    <!-- 400, 556, 712, 868, 1024 -->
    <rect x="400" y="25" width="146" height="220" rx="8" fill="#F1F5F9" stroke="#D1D5DB" stroke-width="2" filter="url(#sh)"/>
    <text x="473" y="55" text-anchor="middle" font-size="14" font-weight="700" fill="#1E293B">MinIO</text>
    <line x1="414" y1="65" x2="532" y2="65" stroke="#E2E8F0" stroke-width="0.5"/>
    <text x="473" y="85" text-anchor="middle" font-size="10" fill="#64748B">对象存储</text>
    <text x="473" y="110" text-anchor="middle" font-size="8" fill="#94A3B8">• 游戏文件存储</text>
    <text x="473" y="128" text-anchor="middle" font-size="8" fill="#94A3B8">• 附件管理</text>
    <text x="473" y="146" text-anchor="middle" font-size="8" fill="#94A3B8">• 扫描报告归档</text>
    <text x="473" y="164" text-anchor="middle" font-size="8" fill="#94A3B8">• 预签名下载链接</text>

    <rect x="556" y="25" width="146" height="220" rx="8" fill="#F1F5F9" stroke="#D1D5DB" stroke-width="2" filter="url(#sh)"/>
    <text x="629" y="55" text-anchor="middle" font-size="14" font-weight="700" fill="#1E293B">SonarQube</text>
    <line x1="570" y1="65" x2="688" y2="65" stroke="#E2E8F0" stroke-width="0.5"/>
    <text x="629" y="85" text-anchor="middle" font-size="10" fill="#64748B">代码质量平台</text>
    <text x="629" y="110" text-anchor="middle" font-size="8" fill="#94A3B8">• 静态代码扫描</text>
    <text x="629" y="128" text-anchor="middle" font-size="8" fill="#94A3B8">• Bug 与安全漏洞检测</text>
    <text x="629" y="146" text-anchor="middle" font-size="8" fill="#94A3B8">• 代码异味分析</text>
    <text x="629" y="164" text-anchor="middle" font-size="8" fill="#94A3B8">• 质量门禁控制</text>

    <rect x="712" y="25" width="146" height="220" rx="8" fill="#F1F5F9" stroke="#D1D5DB" stroke-width="2" filter="url(#sh)"/>
    <text x="785" y="55" text-anchor="middle" font-size="14" font-weight="700" fill="#1E293B">Star-Office</text>
    <line x1="726" y1="65" x2="844" y2="65" stroke="#E2E8F0" stroke-width="0.5"/>
    <text x="785" y="85" text-anchor="middle" font-size="10" fill="#64748B">Agent 工作空间</text>
    <text x="785" y="110" text-anchor="middle" font-size="8" fill="#94A3B8">• 多 Agent 状态同步</text>
    <text x="785" y="128" text-anchor="middle" font-size="8" fill="#94A3B8">• 实时协作画布</text>
    <text x="785" y="146" text-anchor="middle" font-size="8" fill="#94A3B8">• 任务可视化管理</text>
    <text x="785" y="164" text-anchor="middle" font-size="8" fill="#94A3B8">• 跨项目隔离</text>

    <rect x="868" y="25" width="146" height="220" rx="8" fill="#F1F5F9" stroke="#D1D5DB" stroke-width="2" filter="url(#sh)"/>
    <text x="941" y="55" text-anchor="middle" font-size="14" font-weight="700" fill="#1E293B">Jaeger</text>
    <line x1="882" y1="65" x2="1000" y2="65" stroke="#E2E8F0" stroke-width="0.5"/>
    <text x="941" y="85" text-anchor="middle" font-size="10" fill="#64748B">分布式追踪</text>
    <text x="941" y="110" text-anchor="middle" font-size="8" fill="#94A3B8">• 跨服务调用链路</text>
    <text x="941" y="128" text-anchor="middle" font-size="8" fill="#94A3B8">• 性能瓶颈分析</text>
    <text x="941" y="146" text-anchor="middle" font-size="8" fill="#94A3B8">• 错误根因定位</text>
    <text x="941" y="164" text-anchor="middle" font-size="8" fill="#94A3B8">• 可视化追踪界面</text>

    <rect x="1024" y="25" width="126" height="220" rx="8" fill="#F1F5F9" stroke="#D1D5DB" stroke-width="2" filter="url(#sh)"/>
    <text x="1087" y="55" text-anchor="middle" font-size="14" font-weight="700" fill="#1E293B">Draw.io</text>
    <line x1="1038" y1="65" x2="1136" y2="65" stroke="#E2E8F0" stroke-width="0.5"/>
    <text x="1087" y="85" text-anchor="middle" font-size="10" fill="#64748B">图表导出</text>
    <text x="1087" y="110" text-anchor="middle" font-size="8" fill="#94A3B8">• 架构图设计</text>
    <text x="1087" y="128" text-anchor="middle" font-size="8" fill="#94A3B8">• 游戏流程图绘制</text>
    <text x="1087" y="146" text-anchor="middle" font-size="8" fill="#94A3B8">• PNG/SVG 导出</text>
    <text x="1087" y="164" text-anchor="middle" font-size="8" fill="#94A3B8">• 提案附件绑定</text>
  </g>
</svg>
